PathFileType	4	(X/Y/Z)	D:\TRACE\v60_Jaco2_6-2-23\BothDRS_Motion2_8-v60.trc
DataRate	CameraRate	NumFrames	NumMarkers	Units	OrigDataRate	OrigDataStartFrame	OrigNumFrames
100.00	100.00	      38	9	mm	100.00	2813	      7500
Frame#	Time	front left toe			Front right toe			aft left toe			aft right toe			Arm			FL body			FR body			AL Body			AR Body			
		X1	Y1	Z1	X2	Y2	Z2	X3	Y3	Z3	X4	Y4	Z4	X5	Y5	Z5	X6	Y6	Z6	X7	Y7	Z7	X8	Y8	Z8	X9	Y9	Z9	

2813	28.120	-192.43896	100.13576	-267.57297	143.74457	20.85553	-274.69644	-233.24376	8.16544	362.37808	202.20291	90.06709	338.69150	41.01007	1114.55176	-733.93658	-104.18372	574.85046	-398.91208	55.76485	565.28265	-404.47696	-70.91502	587.74994	546.66937	84.72883	573.17181	542.27875	
2814	28.130	-191.47153	111.21988	-266.57489	145.41055	21.51232	-274.20428	-232.67542	7.34632	362.66370	204.88550	100.50558	340.03845	43.15965	1115.80054	-731.80786	-102.96217	575.63513	-398.25430	57.32092	566.06506	-403.35522	-69.64918	585.93420	547.10364	86.22003	571.19196	543.06647	
2815	28.140	-189.47688	121.10231	-265.21570	146.45303	21.91822	-273.96411	-231.71512	6.86750	362.98328	206.50891	109.45417	341.40482	45.58285	1117.22351	-729.44196	-100.45208	575.98584	-396.82242	58.76164	566.98230	-402.38977	-67.50089	584.38678	547.80804	88.59119	569.67529	544.13898	
2816	28.150	-187.16766	130.90175	-263.44260	147.78444	22.71763	-273.62964	-230.32881	6.34843	363.31888	209.29120	118.26488	343.03873	47.43064	1118.78821	-727.08472	-99.23018	576.84058	-395.97134	60.56070	567.83826	-401.43573	-65.57665	582.97260	549.15277	90.81974	568.51630	545.05957	
2817	28.160	-183.81746	138.96071	-261.29642	147.21391	22.89356	-273.68732	-229.63316	5.72891	363.59753	212.36763	125.56097	344.83041	48.91827	1120.13123	-724.76202	-97.46512	577.39996	-394.72644	62.13747	568.52386	-400.16888	-63.48965	581.56476	550.93524	92.56710	567.25873	546.16022	
2818	28.170	-181.47847	145.47884	-258.69016	147.89095	23.33159	-273.27893	-229.07825	4.90309	363.85757	216.72934	132.10368	346.85886	49.71958	1121.27539	-722.50159	-96.06207	578.10779	-393.49210	63.76743	569.17358	-399.16650	-61.44266	580.17535	551.70569	94.49106	566.14526	547.42853	
2819	28.180	-179.10478	148.51617	-255.21288	149.03911	24.08853	-272.62274	-228.10860	3.94982	364.47830	221.70407	136.75591	349.50507	50.10916	1122.48669	-720.30585	-93.91419	578.06488	-392.00140	65.86026	569.68091	-397.66357	-59.26698	579.01874	553.23303	96.79372	565.09418	549.01831	
2820	28.190	-177.65633	150.01189	-251.46558	149.72427	24.61464	-272.42328	-227.12378	3.38802	364.85553	226.49211	138.74330	352.98837	50.92493	1123.85901	-718.03125	-91.80106	578.17334	-390.27847	68.18378	570.22491	-396.32010	-57.09868	577.99841	554.68817	98.96275	564.18451	550.33917	
2821	28.200	-175.64551	148.90952	-246.81894	150.60905	25.36427	-271.94058	-226.67380	2.97380	365.22202	230.40378	137.46396	357.07318	51.11753	1124.81494	-715.75330	-90.07618	578.82751	-388.80496	70.12176	570.85468	-394.81558	-54.47586	577.04370	556.86548	101.14679	563.47052	551.93359	
2822	28.210	-172.65468	145.98758	-242.46974	151.46646	25.85897	-271.63504	-225.51143	2.30974	365.68564	235.21019	133.89406	361.63235	52.22786	1125.73499	-713.47247	-87.94612	579.34973	-386.96924	72.05080	571.57806	-393.41577	-52.06497	575.98248	558.57501	103.94306	562.87469	553.30804	
2823	28.220	-169.23988	141.68777	-237.97371	152.02885	26.41470	-271.29391	-224.93462	1.87195	365.82495	240.48830	129.42635	365.92316	52.42847	1126.46570	-711.11255	-85.92393	579.47162	-385.36951	74.25336	572.39252	-391.58594	-49.98444	574.84961	560.36041	106.44795	562.15875	555.27759	
2824	28.230	-164.62344	136.34784	-233.23889	153.18112	27.11772	-270.86844	-224.14006	1.15828	366.25284	246.04572	124.30164	370.48007	53.26150	1127.21765	-708.50568	-83.60354	579.63477	-383.23630	76.32906	573.01978	-389.76660	-47.41399	573.57770	561.78650	109.02812	561.29736	556.79730	
2825	28.240	-160.25156	129.86618	-228.90964	154.08873	27.59976	-270.43088	-223.01343	0.37993	366.69159	251.50824	118.93158	374.79617	53.58932	1128.27625	-705.86420	-81.12852	579.22577	-380.83994	78.16399	573.66492	-387.89221	-44.82056	572.28406	563.70319	111.37871	560.41907	558.59601	
2826	28.250	-155.83702	122.65112	-224.40445	154.53441	27.74077	-270.33456	-222.36621	-0.05542	366.98273	256.88025	113.25507	379.06326	53.93889	1129.34460	-703.36676	-79.94041	580.06219	-379.39975	80.24752	574.24457	-386.05820	-42.01236	571.01532	565.78656	114.54408	559.64246	561.09528	
2827	28.260	-152.15926	114.71684	-219.76216	154.97665	28.34888	-269.94827	-221.96738	-0.24860	367.19864	262.51526	106.83899	383.04739	54.12455	1130.99341	-700.71051	-77.95771	580.29797	-377.16089	82.61835	574.91174	-384.04816	-39.01329	569.88464	567.83722	117.33032	558.86597	562.49249	
2828	28.270	-148.38077	105.95294	-214.76184	155.89136	29.06534	-269.34460	-221.33717	-0.74305	367.52194	269.56689	99.87015	386.86856	54.29622	1132.39832	-698.02905	-75.10557	580.07550	-374.80917	84.31233	575.40045	-381.74164	-36.27362	568.32690	569.69867	120.33243	557.94183	564.59576	
2829	28.280	-144.17870	96.14150	-209.36528	156.11826	29.38204	-269.10059	-220.72081	-1.21840	368.11871	275.43951	92.44572	390.58475	54.53065	1133.30835	-695.27545	-73.29561	580.27112	-372.95248	87.22917	575.96533	-379.73093	-33.33900	566.68213	572.05957	123.61967	556.81958	566.76483	
2830	28.290	-139.68187	86.85860	-203.98163	156.56920	29.67840	-268.76599	-219.70218	-2.28069	368.47974	282.28693	84.76216	394.76230	54.45667	1134.27344	-692.44098	-70.89302	579.89380	-370.44391	89.48791	576.35065	-377.61282	-30.01242	565.08081	574.52863	126.54888	555.58258	568.86359	
2831	28.300	-134.65201	77.03353	-198.31276	157.49669	30.16069	-268.31830	-219.22719	-2.50114	368.56812	287.93045	76.50288	399.45581	53.84008	1134.98010	-689.93469	-68.05007	579.59509	-367.93076	91.98180	576.73438	-375.22192	-26.99217	563.63861	577.03967	129.48920	554.57733	571.13538	
2832	28.310	-129.93526	67.40469	-192.88499	157.79269	30.39674	-268.10242	-218.55554	-2.71763	369.18689	293.52985	67.82221	403.98029	53.54127	1135.81335	-687.26257	-65.21613	579.43628	-364.93610	94.01859	576.98077	-372.31497	-23.28270	562.29181	579.47961	133.08147	553.76801	573.59802	
2833	28.320	-125.66553	58.47692	-187.87070	158.37140	30.95636	-267.59418	-218.06212	-2.99886	369.57578	298.57928	59.68394	408.46616	53.45210	1136.59839	-684.30048	-63.53636	579.62164	-362.50443	96.24316	577.58466	-369.71817	-20.04533	560.78241	582.32117	136.80698	553.01086	576.15863	
2834	28.330	-121.63897	50.13365	-183.49989	158.59029	31.17620	-267.43314	-217.33882	-3.49044	369.95340	303.66101	52.22324	412.40198	53.07957	1137.11206	-681.19598	-61.22368	579.45081	-359.47739	99.43472	578.01984	-367.29181	-16.41228	559.22028	585.11151	140.08138	552.12408	578.71509	
2835	28.340	-117.82623	41.23547	-179.04404	159.31328	31.59763	-266.89047	-216.87801	-4.03188	370.19214	308.72787	44.35963	416.12204	53.04766	1137.43542	-677.68732	-58.48342	578.88232	-356.44644	101.54707	578.17743	-364.33447	-12.94642	557.69775	588.00269	143.98976	551.07831	581.70245	
2836	28.350	-113.86740	33.44776	-175.11188	159.75560	31.79136	-266.48013	-215.55193	-5.33148	370.85675	313.66785	37.20662	419.22336	53.22732	1137.87671	-673.75983	-55.20391	578.23206	-353.06747	104.82360	578.47876	-361.40140	-9.11528	556.04633	591.03613	147.45781	549.97589	584.90875	
2837	28.360	-112.04125	32.05231	-175.07962	159.92514	32.08727	-266.39145	-217.35329	-3.91288	370.70041	318.13977	30.41294	422.14597	52.99894	1138.44653	-669.91046	-53.06461	577.94702	-350.10483	107.06073	578.36682	-358.15045	-5.67271	554.25793	594.21552	151.21161	549.13373	587.94098	
2838	28.370	-112.39144	29.47488	-175.81322	160.02869	32.27829	-266.19022	-216.02847	-4.42946	371.32275	321.80798	23.95512	425.74451	52.37858	1139.23511	-665.98822	-49.92815	577.83636	-346.27924	110.10052	578.91437	-354.89746	-1.59077	552.59576	597.71643	155.19907	547.67230	590.80688	
2839	28.380	-113.17768	32.07395	-173.59792	159.60895	32.43064	-265.89612	-215.56151	-4.54659	371.64761	325.50085	17.07052	429.43320	52.86013	1139.72705	-661.63239	-47.71547	578.68964	-342.75400	112.60043	579.62653	-351.42743	3.19504	550.98383	602.01569	159.72183	546.35840	594.64142	
2840	28.390	-112.65019	32.34238	-174.29047	160.21487	32.88251	-265.67053	-215.01030	-5.07048	372.17355	327.71155	9.43100	433.05255	53.27704	1140.37732	-656.76270	-45.42368	579.47479	-338.60693	114.98020	580.54590	-347.62674	7.35104	549.20508	605.24670	163.93446	544.79834	598.40662	
2841	28.400	-112.18062	32.65300	-173.66035	160.35809	33.02768	-265.52444	-214.95911	-5.17053	372.68640	329.41574	-1.72529	435.35980	54.36822	1141.63159	-651.19019	-42.99967	579.81830	-334.28543	117.42030	581.32062	-343.81821	11.79014	547.73022	609.15021	168.23302	543.69641	601.84564	
2842	28.410	-112.52120	32.75725	-172.90321	160.63463	33.56561	-265.06937	-214.98956	-5.02720	372.72879	330.94003	-9.01245	433.00638	55.57621	1143.50525	-645.63165	-40.27242	579.62225	-329.66733	119.12515	581.66339	-339.43536	15.97653	547.01868	613.61108	172.55643	543.68146	606.19049	
2843	28.420	-112.29265	33.06474	-172.58434	161.02544	33.99487	-263.98029	-213.47012	-5.33540	373.19092	333.45950	-8.64865	434.39838	57.12108	1145.71448	-640.19049	-38.00064	579.08716	-325.12833	121.68358	581.71283	-334.97589	19.87118	547.83167	617.38770	176.74220	545.21747	610.43146	
2844	28.430	-110.24055	32.92341	-169.43433	162.88110	37.36239	-262.62665	-210.61331	-2.88952	374.39661	332.90488	-9.09787	438.03311	58.84338	1147.65747	-635.45563	-35.16695	579.60016	-320.79218	124.25012	582.52551	-330.86200	23.99534	548.50964	622.50641	180.33269	546.25940	614.38947	
2845	28.440	-108.66045	33.86031	-166.23262	164.34814	41.99862	-258.09393	-203.98793	0.93335	378.67572	332.42804	-11.22822	436.70917	60.16389	1148.78479	-631.33502	-32.81924	581.20593	-316.57880	126.84547	583.76563	-326.83752	27.49001	547.83264	626.45038	183.99384	545.28455	618.20068	
2846	28.450	-106.95699	34.11352	-165.53242	166.11954	46.62172	-252.11230	-197.14954	2.41877	383.48749	333.23834	-11.68524	437.26535	60.95811	1149.17151	-627.68970	-31.07060	582.59741	-312.86697	129.17545	585.69281	-323.49008	30.99515	546.15680	629.73010	187.21434	544.02930	621.59003	
2847	28.460	-104.16966	33.77448	-161.64044	168.34506	57.55867	-247.70270	-190.56982	11.14929	385.33643	333.34622	-13.02506	438.55063	62.12322	1149.76025	-622.79352	-29.32058	583.44025	-309.44168	130.76065	586.87671	-320.35608	33.82747	544.33002	633.27325	190.39400	542.44568	624.75519	
2848	28.470	-101.76646	33.33033	-158.21565	172.38472	68.83936	-243.59462	-183.62108	19.33673	387.47910	333.19785	-14.46775	437.47470	62.72270	1151.15771	-618.38007	-28.03464	584.48834	-306.09525	132.01019	587.60748	-317.39804	37.17780	542.86786	636.42523	193.47011	541.04169	627.95117	
2849	28.480	-100.84693	33.64861	-156.11502	175.69785	82.48066	-241.21306	-178.58635	31.72697	390.96689	333.45203	-15.07482	438.59561	63.96624	1153.36267	-613.85767	-26.59375	585.11835	-303.30493	132.97856	588.34344	-314.82037	40.27767	541.56647	639.07782	196.19125	539.23804	629.83771	
2850	28.490	-100.95604	34.22823	-155.93192	179.32710	96.42910	-237.64653	-175.11617	45.22052	394.99994	333.30789	-15.99490	438.47647	65.31814	1156.04993	-609.62762	-26.21363	585.92554	-300.71710	133.92963	588.85577	-312.51877	43.23428	540.14258	641.31952	199.06174	537.80847	631.90778	
